<?xml version="1.0" encoding="UTF-8" standalone="no"?>
<!-- Created with Inkscape (http://www.inkscape.org/) -->

<svg
   xmlns:dc="http://purl.org/dc/elements/1.1/"
   xmlns:cc="http://creativecommons.org/ns#"
   xmlns:rdf="http://www.w3.org/1999/02/22-rdf-syntax-ns#"
   xmlns:svg="http://www.w3.org/2000/svg"
   xmlns="http://www.w3.org/2000/svg"
   xmlns:sodipodi="http://sodipodi.sourceforge.net/DTD/sodipodi-0.dtd"
   xmlns:inkscape="http://www.inkscape.org/namespaces/inkscape"
   id="svg2"
   version="1.1"
   inkscape:version="0.48.5 r10040"
   width="672.5"
   height="247.5"
   xml:space="preserve"
   sodipodi:docname="FaunalProfile3parts.pdf"><metadata
     id="metadata8"><rdf:RDF><cc:Work
         rdf:about=""><dc:format>image/svg+xml</dc:format><dc:type
           rdf:resource="http://purl.org/dc/dcmitype/StillImage" /><dc:title></dc:title></cc:Work></rdf:RDF></metadata><defs
     id="defs6"><clipPath
       clipPathUnits="userSpaceOnUse"
       id="clipPath24"><path
         d="m 0,0 179.53,0 0,198.43 L 0,198.43 0,0 z"
         id="path26" /></clipPath><clipPath
       clipPathUnits="userSpaceOnUse"
       id="clipPath40"><path
         d="m 40.94,33.91 124.18,0 0,135.64 -124.18,0 0,-135.64 z"
         id="path42" /></clipPath><clipPath
       clipPathUnits="userSpaceOnUse"
       id="clipPath212"><path
         d="m 179.53,0 179.53,0 0,198.43 -179.53,0 0,-198.43 z"
         id="path214" /></clipPath><clipPath
       clipPathUnits="userSpaceOnUse"
       id="clipPath228"><path
         d="m 220.47,33.91 124.18,0 0,135.64 -124.18,0 0,-135.64 z"
         id="path230" /></clipPath><clipPath
       clipPathUnits="userSpaceOnUse"
       id="clipPath400"><path
         d="m 359.06,0 179.53,0 0,198.43 -179.53,0 0,-198.43 z"
         id="path402" /></clipPath><clipPath
       clipPathUnits="userSpaceOnUse"
       id="clipPath416"><path
         d="m 400,33.91 124.18,0 0,135.64 -124.18,0 0,-135.64 z"
         id="path418" /></clipPath></defs><sodipodi:namedview
     pagecolor="#ffffff"
     bordercolor="#666666"
     borderopacity="1"
     objecttolerance="10"
     gridtolerance="10"
     guidetolerance="10"
     inkscape:pageopacity="0"
     inkscape:pageshadow="2"
     inkscape:window-width="640"
     inkscape:window-height="480"
     id="namedview4"
     showgrid="false"
     inkscape:zoom="0.57843866"
     inkscape:cx="336.25"
     inkscape:cy="123.75"
     inkscape:window-x="0"
     inkscape:window-y="0"
     inkscape:window-maximized="0"
     inkscape:current-layer="g10" /><g
     id="g10"
     inkscape:groupmode="layer"
     inkscape:label="FaunalProfile3parts"
     transform="matrix(1.25,0,0,-1.25,0,247.5)"><g
       id="g12" /><g
       id="g14" /><g
       id="g16" /><g
       id="g18" /><g
       id="g20"><g
         id="g22"
         clip-path="url(#clipPath24)"><path
           d="m 0,0 179.53,0 0,198.43 L 0,198.43 0,0 z"
           style="fill:#ffffff;fill-opacity:1;fill-rule:nonzero;stroke:#ffffff;stroke-opacity:1;stroke-width:1.06;stroke-linecap:round;stroke-linejoin:round;stroke-miterlimit:10;stroke-dasharray:none"
           id="path28" /></g></g><g
       id="g30" /><g
       id="g32" /><g
       id="g34" /><g
       id="g36"><g
         id="g38"
         clip-path="url(#clipPath40)"><path
           d="m 40.94,33.91 124.18,0 0,135.64 -124.18,0 0,-135.64 z"
           style="fill:#ffffff;fill-opacity:1;fill-rule:nonzero;stroke:none"
           id="path44" /><path
           d="m 126.76,94.15 2.86,-4.96 -5.72,0 2.86,4.96 z"
           style="fill:#000000;fill-opacity:1;fill-rule:nonzero;stroke:#000000;stroke-opacity:1;stroke-width:0.75;stroke-linecap:round;stroke-linejoin:round;stroke-miterlimit:10;stroke-dasharray:none"
           id="path46" /><path
           d="m 128.16,84.48 2.86,-4.96 -5.72,0 2.86,4.96 z"
           style="fill:#000000;fill-opacity:1;fill-rule:nonzero;stroke:#000000;stroke-opacity:1;stroke-width:0.75;stroke-linecap:round;stroke-linejoin:round;stroke-miterlimit:10;stroke-dasharray:none"
           id="path48" /><path
           d="m 74.81,143.56 2.87,-4.96 -5.73,0 2.86,4.96 z"
           style="fill:#000000;fill-opacity:1;fill-rule:nonzero;stroke:#000000;stroke-opacity:1;stroke-width:0.75;stroke-linecap:round;stroke-linejoin:round;stroke-miterlimit:10;stroke-dasharray:none"
           id="path50" /><path
           d="m 102.47,98.42 2.86,4.96 -5.73,0 2.87,-4.96 z"
           style="fill:#000000;fill-opacity:1;fill-rule:nonzero;stroke:#000000;stroke-opacity:1;stroke-width:0.75;stroke-linecap:round;stroke-linejoin:round;stroke-miterlimit:10;stroke-dasharray:none"
           id="path52" /><path
           d="m 102.24,121.8 2.86,4.96 -5.72,0 2.86,-4.96 z"
           style="fill:#000000;fill-opacity:1;fill-rule:nonzero;stroke:#000000;stroke-opacity:1;stroke-width:0.75;stroke-linecap:round;stroke-linejoin:round;stroke-miterlimit:10;stroke-dasharray:none"
           id="path54" /><path
           d="m 122.87,123.08 2.86,4.96 -5.72,0 2.86,-4.96 z"
           style="fill:#000000;fill-opacity:1;fill-rule:nonzero;stroke:#000000;stroke-opacity:1;stroke-width:0.75;stroke-linecap:round;stroke-linejoin:round;stroke-miterlimit:10;stroke-dasharray:none"
           id="path56" /><path
           d="m 100.7,127.63 2.66,2.67 -2.66,2.66 -2.67,-2.66 2.67,-2.67 z"
           style="fill:#000000;fill-opacity:1;fill-rule:nonzero;stroke:#000000;stroke-opacity:1;stroke-width:0.75;stroke-linecap:round;stroke-linejoin:round;stroke-miterlimit:10;stroke-dasharray:none"
           id="path58" /><path
           d="m 113.59,138.69 2.67,2.67 -2.67,2.66 -2.66,-2.66 2.66,-2.67 z"
           style="fill:#000000;fill-opacity:1;fill-rule:nonzero;stroke:#000000;stroke-opacity:1;stroke-width:0.75;stroke-linecap:round;stroke-linejoin:round;stroke-miterlimit:10;stroke-dasharray:none"
           id="path60" /><path
           d="m 56.09,95.71 2.67,2.67 -2.67,2.66 -2.66,-2.66 2.66,-2.67 z"
           style="fill:#000000;fill-opacity:1;fill-rule:nonzero;stroke:#000000;stroke-opacity:1;stroke-width:0.75;stroke-linecap:round;stroke-linejoin:round;stroke-miterlimit:10;stroke-dasharray:none"
           id="path62" /><path
           d="m 73.53,130.67 3.77,0 0,3.77 -3.77,0 0,-3.77 z"
           style="fill:#000000;fill-opacity:1;fill-rule:nonzero;stroke:#000000;stroke-opacity:1;stroke-width:0.75;stroke-linecap:round;stroke-linejoin:round;stroke-miterlimit:10;stroke-dasharray:none"
           id="path64" /><path
           d="m 130.18,104.84 3.77,0 0,3.77 -3.77,0 0,-3.77 z"
           style="fill:#000000;fill-opacity:1;fill-rule:nonzero;stroke:#000000;stroke-opacity:1;stroke-width:0.75;stroke-linecap:round;stroke-linejoin:round;stroke-miterlimit:10;stroke-dasharray:none"
           id="path66" /><path
           d="m 79.52,123.79 3.77,0 0,3.77 -3.77,0 0,-3.77 z"
           style="fill:#000000;fill-opacity:1;fill-rule:nonzero;stroke:#000000;stroke-opacity:1;stroke-width:0.75;stroke-linecap:round;stroke-linejoin:round;stroke-miterlimit:10;stroke-dasharray:none"
           id="path68" /><path
           d="m 103.04,33.91 0,135.63"
           style="fill:none;stroke:#000000;stroke-opacity:1;stroke-width:0.43;stroke-linecap:butt;stroke-linejoin:round;stroke-miterlimit:10;stroke-dasharray:none"
           id="path70" /><path
           d="m 40.94,101.72 124.19,0"
           style="fill:none;stroke:#000000;stroke-opacity:1;stroke-width:0.43;stroke-linecap:butt;stroke-linejoin:round;stroke-miterlimit:10;stroke-dasharray:none"
           id="path72" /><path
           d="m 40.94,33.91 124.18,0 0,135.64 -124.18,0 0,-135.64 z"
           style="fill:none;stroke:#000000;stroke-opacity:1;stroke-width:0.43;stroke-linecap:round;stroke-linejoin:round;stroke-miterlimit:10;stroke-dasharray:none"
           id="path74" /></g></g><g
       id="g76" /><g
       id="g78"><path
         d="m 40.94,33.91 0,135.63"
         style="fill:none;stroke:#000000;stroke-opacity:1;stroke-width:0.53;stroke-linecap:butt;stroke-linejoin:round;stroke-miterlimit:10;stroke-dasharray:none"
         id="path80" /></g><g
       id="g82"><text
         transform="matrix(1,0,0,-1,29.36,37.09)"
         id="text84"><tspan
           style="fill:#000000;fill-opacity:1;fill-rule:nonzero;stroke:none;font-family:Times New Roman;font-variant:normal;font-weight:normal;font-size:9;writing-mode:lr;-inkscape-font-specification:Times-Roman"
           x="0"
           y="0"
           id="tspan86">0</tspan></text>
<text
         transform="matrix(1,0,0,-1,24.86,67.92)"
         id="text88"><tspan
           style="fill:#000000;fill-opacity:1;fill-rule:nonzero;stroke:none;font-family:Times New Roman;font-variant:normal;font-weight:normal;font-size:9;writing-mode:lr;-inkscape-font-specification:Times-Roman"
           x="0 4.5"
           y="0"
           sodipodi:role="line"
           id="tspan90">25</tspan></text>
<text
         transform="matrix(1,0,0,-1,24.86,98.75)"
         id="text92"><tspan
           style="fill:#000000;fill-opacity:1;fill-rule:nonzero;stroke:none;font-family:Times New Roman;font-variant:normal;font-weight:normal;font-size:9;writing-mode:lr;-inkscape-font-specification:Times-Roman"
           x="0 4.5"
           y="0"
           sodipodi:role="line"
           id="tspan94">50</tspan></text>
<text
         transform="matrix(1,0,0,-1,24.86,129.57)"
         id="text96"><tspan
           style="fill:#000000;fill-opacity:1;fill-rule:nonzero;stroke:none;font-family:Times New Roman;font-variant:normal;font-weight:normal;font-size:9;writing-mode:lr;-inkscape-font-specification:Times-Roman"
           x="0 4.5"
           y="0"
           sodipodi:role="line"
           id="tspan98">75</tspan></text>
<text
         transform="matrix(1,0,0,-1,20.36,160.4)"
         id="text100"><tspan
           style="fill:#000000;fill-opacity:1;fill-rule:nonzero;stroke:none;font-family:Times New Roman;font-variant:normal;font-weight:normal;font-size:9;writing-mode:lr;-inkscape-font-specification:Times-Roman"
           x="0 4.5 9"
           y="0"
           sodipodi:role="line"
           id="tspan102">100</tspan></text>
</g><g
       id="g104" /><g
       id="g106"><path
         d="m 36.69,40.07 4.25,0"
         style="fill:none;stroke:#000000;stroke-opacity:1;stroke-width:0.53;stroke-linecap:butt;stroke-linejoin:round;stroke-miterlimit:10;stroke-dasharray:none"
         id="path108" /><path
         d="m 36.69,70.9 4.25,0"
         style="fill:none;stroke:#000000;stroke-opacity:1;stroke-width:0.53;stroke-linecap:butt;stroke-linejoin:round;stroke-miterlimit:10;stroke-dasharray:none"
         id="path110" /><path
         d="m 36.69,101.72 4.25,0"
         style="fill:none;stroke:#000000;stroke-opacity:1;stroke-width:0.53;stroke-linecap:butt;stroke-linejoin:round;stroke-miterlimit:10;stroke-dasharray:none"
         id="path112" /><path
         d="m 36.69,132.55 4.25,0"
         style="fill:none;stroke:#000000;stroke-opacity:1;stroke-width:0.53;stroke-linecap:butt;stroke-linejoin:round;stroke-miterlimit:10;stroke-dasharray:none"
         id="path114" /><path
         d="m 36.69,163.38 4.25,0"
         style="fill:none;stroke:#000000;stroke-opacity:1;stroke-width:0.53;stroke-linecap:butt;stroke-linejoin:round;stroke-miterlimit:10;stroke-dasharray:none"
         id="path116" /></g><g
       id="g118" /><g
       id="g120" /><g
       id="g122" /><g
       id="g124" /><g
       id="g126"><path
         d="m 40.94,33.91 124.19,0"
         style="fill:none;stroke:#000000;stroke-opacity:1;stroke-width:0.53;stroke-linecap:butt;stroke-linejoin:round;stroke-miterlimit:10;stroke-dasharray:none"
         id="path128" /></g><g
       id="g130"><path
         d="m 46.59,29.65 0,4.26"
         style="fill:none;stroke:#000000;stroke-opacity:1;stroke-width:0.53;stroke-linecap:butt;stroke-linejoin:round;stroke-miterlimit:10;stroke-dasharray:none"
         id="path132" /><path
         d="m 74.81,29.65 0,4.26"
         style="fill:none;stroke:#000000;stroke-opacity:1;stroke-width:0.53;stroke-linecap:butt;stroke-linejoin:round;stroke-miterlimit:10;stroke-dasharray:none"
         id="path134" /><path
         d="m 103.04,29.65 0,4.26"
         style="fill:none;stroke:#000000;stroke-opacity:1;stroke-width:0.53;stroke-linecap:butt;stroke-linejoin:round;stroke-miterlimit:10;stroke-dasharray:none"
         id="path136" /><path
         d="m 131.26,29.65 0,4.26"
         style="fill:none;stroke:#000000;stroke-opacity:1;stroke-width:0.53;stroke-linecap:butt;stroke-linejoin:round;stroke-miterlimit:10;stroke-dasharray:none"
         id="path138" /><path
         d="m 159.48,29.65 0,4.26"
         style="fill:none;stroke:#000000;stroke-opacity:1;stroke-width:0.53;stroke-linecap:butt;stroke-linejoin:round;stroke-miterlimit:10;stroke-dasharray:none"
         id="path140" /></g><g
       id="g142" /><g
       id="g144"><text
         transform="matrix(1,0,0,-1,44.09,20.36)"
         id="text146"><tspan
           style="fill:#000000;fill-opacity:1;fill-rule:nonzero;stroke:none;font-family:Helvetica;font-variant:normal;font-weight:normal;font-size:9;writing-mode:lr;-inkscape-font-specification:Helvetica"
           x="0"
           y="0"
           id="tspan148">0</tspan></text>
<text
         transform="matrix(1,0,0,-1,69.81,20.36)"
         id="text150"><tspan
           style="fill:#000000;fill-opacity:1;fill-rule:nonzero;stroke:none;font-family:Helvetica;font-variant:normal;font-weight:normal;font-size:9;writing-mode:lr;-inkscape-font-specification:Helvetica"
           x="0 5.004"
           y="0"
           sodipodi:role="line"
           id="tspan152">25</tspan></text>
<text
         transform="matrix(1,0,0,-1,98.03,20.36)"
         id="text154"><tspan
           style="fill:#000000;fill-opacity:1;fill-rule:nonzero;stroke:none;font-family:Helvetica;font-variant:normal;font-weight:normal;font-size:9;writing-mode:lr;-inkscape-font-specification:Helvetica"
           x="0 5.004"
           y="0"
           sodipodi:role="line"
           id="tspan156">50</tspan></text>
<text
         transform="matrix(1,0,0,-1,126.26,20.36)"
         id="text158"><tspan
           style="fill:#000000;fill-opacity:1;fill-rule:nonzero;stroke:none;font-family:Helvetica;font-variant:normal;font-weight:normal;font-size:9;writing-mode:lr;-inkscape-font-specification:Helvetica"
           x="0 5.004"
           y="0"
           sodipodi:role="line"
           id="tspan160">75</tspan></text>
<text
         transform="matrix(1,0,0,-1,151.98,20.36)"
         id="text162"><tspan
           style="fill:#000000;fill-opacity:1;fill-rule:nonzero;stroke:none;font-family:Helvetica;font-variant:normal;font-weight:normal;font-size:9;writing-mode:lr;-inkscape-font-specification:Helvetica"
           x="0 5.004 10.008"
           y="0"
           sodipodi:role="line"
           id="tspan164">100</tspan></text>
</g><g
       id="g166" /><g
       id="g168" /><g
       id="g170" /><g
       id="g172" /><g
       id="g174"><text
         transform="matrix(1,0,0,-1,75.17,10.8)"
         id="text176"><tspan
           style="fill:#000000;fill-opacity:1;fill-rule:nonzero;stroke:none;font-family:Times New Roman;font-variant:normal;font-weight:normal;font-size:9;writing-mode:lr;-inkscape-font-specification:Times-Roman"
           x="0 5.004 7.506 10.503 15.003 18.999 21.501 26.001 28.998 32.994 35.244 38.241 42.741 47.241 51.237"
           y="0"
           sodipodi:role="line"
           id="tspan178">Structure Index</tspan></text>
</g><g
       id="g180" /><g
       id="g182"><text
         transform="matrix(0,1,1,0,16.76,69.36)"
         id="text184"><tspan
           style="fill:#000000;fill-opacity:1;fill-rule:nonzero;stroke:none;font-family:Times New Roman;font-variant:normal;font-weight:normal;font-size:9;writing-mode:lr;-inkscape-font-specification:Times-Roman"
           x="0 5.499 9.999 12.996 15.498 19.494 23.994 30.996 34.992 39.492 41.994 44.244 47.241 51.741 56.241 60.237"
           y="0"
           sodipodi:role="line"
           id="tspan186">Enrichment Index</tspan></text>
</g><g
       id="g188" /><g
       id="g190"><text
         transform="matrix(1,0,0,-1,66.97,173.14)"
         id="text192"><tspan
           style="fill:#000000;fill-opacity:1;fill-rule:nonzero;stroke:none;font-family:Times New Roman;font-variant:normal;font-weight:bold;font-size:11;writing-mode:lr;-inkscape-font-specification:Times-Bold"
           x="0 7.942 14.058 20.174 22.924 29.04 32.098 37.598 43.714 47.377 50.127 55.627 61.127 66.627"
           y="0"
           sodipodi:role="line"
           id="tspan194">Cup plant 2012</tspan></text>
</g><g
       id="g196" /><g
       id="g198" /><g
       id="g200" /><g
       id="g202" /><g
       id="g204" /><g
       id="g206" /><g
       id="g208"><g
         id="g210"
         clip-path="url(#clipPath212)"><path
           d="m 179.53,0 179.53,0 0,198.43 -179.53,0 0,-198.43 z"
           style="fill:#ffffff;fill-opacity:1;fill-rule:nonzero;stroke:#ffffff;stroke-opacity:1;stroke-width:1.06;stroke-linecap:round;stroke-linejoin:round;stroke-miterlimit:10;stroke-dasharray:none"
           id="path216" /></g></g><g
       id="g218" /><g
       id="g220" /><g
       id="g222" /><g
       id="g224"><g
         id="g226"
         clip-path="url(#clipPath228)"><path
           d="m 220.47,33.91 124.18,0 0,135.64 -124.18,0 0,-135.64 z"
           style="fill:#ffffff;fill-opacity:1;fill-rule:nonzero;stroke:none"
           id="path232" /><path
           d="m 306.2,100.29 2.86,-4.96 -5.73,0 2.87,4.96"
           style="fill:none;stroke:#000000;stroke-opacity:1;stroke-width:0.75;stroke-linecap:round;stroke-linejoin:round;stroke-miterlimit:10;stroke-dasharray:none"
           id="path234" /><path
           d="m 300.83,116.04 2.86,-4.96 -5.73,0 2.87,4.96"
           style="fill:none;stroke:#000000;stroke-opacity:1;stroke-width:0.75;stroke-linecap:round;stroke-linejoin:round;stroke-miterlimit:10;stroke-dasharray:none"
           id="path236" /><path
           d="m 273.4,109.25 2.86,-4.96 -5.73,0 2.87,4.96"
           style="fill:none;stroke:#000000;stroke-opacity:1;stroke-width:0.75;stroke-linecap:round;stroke-linejoin:round;stroke-miterlimit:10;stroke-dasharray:none"
           id="path238" /><path
           d="m 270.06,96.55 2.86,4.96 -5.73,0 2.87,-4.96"
           style="fill:none;stroke:#000000;stroke-opacity:1;stroke-width:0.75;stroke-linecap:round;stroke-linejoin:round;stroke-miterlimit:10;stroke-dasharray:none"
           id="path240" /><path
           d="m 316.55,103.47 2.87,4.96 -5.73,0 2.86,-4.96"
           style="fill:none;stroke:#000000;stroke-opacity:1;stroke-width:0.75;stroke-linecap:round;stroke-linejoin:round;stroke-miterlimit:10;stroke-dasharray:none"
           id="path242" /><path
           d="m 288.08,120.72 2.86,4.96 -5.72,0 2.86,-4.96"
           style="fill:none;stroke:#000000;stroke-opacity:1;stroke-width:0.75;stroke-linecap:round;stroke-linejoin:round;stroke-miterlimit:10;stroke-dasharray:none"
           id="path244" /><path
           d="m 265.83,86.37 2.66,2.66 -2.66,2.67 -2.66,-2.67 2.66,-2.66"
           style="fill:none;stroke:#000000;stroke-opacity:1;stroke-width:0.75;stroke-linecap:round;stroke-linejoin:round;stroke-miterlimit:10;stroke-dasharray:none"
           id="path246" /><path
           d="m 295.2,109 2.67,2.67 -2.67,2.66 -2.66,-2.66 2.66,-2.67"
           style="fill:none;stroke:#000000;stroke-opacity:1;stroke-width:0.75;stroke-linecap:round;stroke-linejoin:round;stroke-miterlimit:10;stroke-dasharray:none"
           id="path248" /><path
           d="m 259.25,98.18 2.67,2.66 -2.67,2.67 -2.66,-2.67 2.66,-2.66"
           style="fill:none;stroke:#000000;stroke-opacity:1;stroke-width:0.75;stroke-linecap:round;stroke-linejoin:round;stroke-miterlimit:10;stroke-dasharray:none"
           id="path250" /><path
           d="m 322.02,107.01 3.77,0 0,3.77 -3.77,0 0,-3.77 z"
           style="fill:none;stroke:#000000;stroke-opacity:1;stroke-width:0.75;stroke-linecap:round;stroke-linejoin:round;stroke-miterlimit:10;stroke-dasharray:none"
           id="path252" /><path
           d="m 327.59,122.56 3.77,0 0,3.77 -3.77,0 0,-3.77 z"
           style="fill:none;stroke:#000000;stroke-opacity:1;stroke-width:0.75;stroke-linecap:round;stroke-linejoin:round;stroke-miterlimit:10;stroke-dasharray:none"
           id="path254" /><path
           d="m 253.94,83.03 3.77,0 0,3.77 -3.77,0 0,-3.77 z"
           style="fill:none;stroke:#000000;stroke-opacity:1;stroke-width:0.75;stroke-linecap:round;stroke-linejoin:round;stroke-miterlimit:10;stroke-dasharray:none"
           id="path256" /><path
           d="m 282.56,33.91 0,135.63"
           style="fill:none;stroke:#000000;stroke-opacity:1;stroke-width:0.43;stroke-linecap:butt;stroke-linejoin:round;stroke-miterlimit:10;stroke-dasharray:none"
           id="path258" /><path
           d="m 220.47,101.72 124.19,0"
           style="fill:none;stroke:#000000;stroke-opacity:1;stroke-width:0.43;stroke-linecap:butt;stroke-linejoin:round;stroke-miterlimit:10;stroke-dasharray:none"
           id="path260" /><path
           d="m 220.47,33.91 124.18,0 0,135.64 -124.18,0 0,-135.64 z"
           style="fill:none;stroke:#000000;stroke-opacity:1;stroke-width:0.43;stroke-linecap:round;stroke-linejoin:round;stroke-miterlimit:10;stroke-dasharray:none"
           id="path262" /></g></g><g
       id="g264" /><g
       id="g266"><path
         d="m 220.47,33.91 0,135.63"
         style="fill:none;stroke:#000000;stroke-opacity:1;stroke-width:0.53;stroke-linecap:butt;stroke-linejoin:round;stroke-miterlimit:10;stroke-dasharray:none"
         id="path268" /></g><g
       id="g270"><text
         transform="matrix(1,0,0,-1,208.89,37.09)"
         id="text272"><tspan
           style="fill:#000000;fill-opacity:1;fill-rule:nonzero;stroke:none;font-family:Times New Roman;font-variant:normal;font-weight:normal;font-size:9;writing-mode:lr;-inkscape-font-specification:Times-Roman"
           x="0"
           y="0"
           id="tspan274">0</tspan></text>
<text
         transform="matrix(1,0,0,-1,204.39,67.92)"
         id="text276"><tspan
           style="fill:#000000;fill-opacity:1;fill-rule:nonzero;stroke:none;font-family:Times New Roman;font-variant:normal;font-weight:normal;font-size:9;writing-mode:lr;-inkscape-font-specification:Times-Roman"
           x="0 4.5"
           y="0"
           sodipodi:role="line"
           id="tspan278">25</tspan></text>
<text
         transform="matrix(1,0,0,-1,204.39,98.75)"
         id="text280"><tspan
           style="fill:#000000;fill-opacity:1;fill-rule:nonzero;stroke:none;font-family:Times New Roman;font-variant:normal;font-weight:normal;font-size:9;writing-mode:lr;-inkscape-font-specification:Times-Roman"
           x="0 4.5"
           y="0"
           sodipodi:role="line"
           id="tspan282">50</tspan></text>
<text
         transform="matrix(1,0,0,-1,204.39,129.57)"
         id="text284"><tspan
           style="fill:#000000;fill-opacity:1;fill-rule:nonzero;stroke:none;font-family:Times New Roman;font-variant:normal;font-weight:normal;font-size:9;writing-mode:lr;-inkscape-font-specification:Times-Roman"
           x="0 4.5"
           y="0"
           sodipodi:role="line"
           id="tspan286">75</tspan></text>
<text
         transform="matrix(1,0,0,-1,199.89,160.4)"
         id="text288"><tspan
           style="fill:#000000;fill-opacity:1;fill-rule:nonzero;stroke:none;font-family:Times New Roman;font-variant:normal;font-weight:normal;font-size:9;writing-mode:lr;-inkscape-font-specification:Times-Roman"
           x="0 4.5 9"
           y="0"
           sodipodi:role="line"
           id="tspan290">100</tspan></text>
</g><g
       id="g292" /><g
       id="g294"><path
         d="m 216.22,40.07 4.25,0"
         style="fill:none;stroke:#000000;stroke-opacity:1;stroke-width:0.53;stroke-linecap:butt;stroke-linejoin:round;stroke-miterlimit:10;stroke-dasharray:none"
         id="path296" /><path
         d="m 216.22,70.9 4.25,0"
         style="fill:none;stroke:#000000;stroke-opacity:1;stroke-width:0.53;stroke-linecap:butt;stroke-linejoin:round;stroke-miterlimit:10;stroke-dasharray:none"
         id="path298" /><path
         d="m 216.22,101.72 4.25,0"
         style="fill:none;stroke:#000000;stroke-opacity:1;stroke-width:0.53;stroke-linecap:butt;stroke-linejoin:round;stroke-miterlimit:10;stroke-dasharray:none"
         id="path300" /><path
         d="m 216.22,132.55 4.25,0"
         style="fill:none;stroke:#000000;stroke-opacity:1;stroke-width:0.53;stroke-linecap:butt;stroke-linejoin:round;stroke-miterlimit:10;stroke-dasharray:none"
         id="path302" /><path
         d="m 216.22,163.38 4.25,0"
         style="fill:none;stroke:#000000;stroke-opacity:1;stroke-width:0.53;stroke-linecap:butt;stroke-linejoin:round;stroke-miterlimit:10;stroke-dasharray:none"
         id="path304" /></g><g
       id="g306" /><g
       id="g308" /><g
       id="g310" /><g
       id="g312" /><g
       id="g314"><path
         d="m 220.47,33.91 124.19,0"
         style="fill:none;stroke:#000000;stroke-opacity:1;stroke-width:0.53;stroke-linecap:butt;stroke-linejoin:round;stroke-miterlimit:10;stroke-dasharray:none"
         id="path316" /></g><g
       id="g318"><path
         d="m 226.12,29.65 0,4.26"
         style="fill:none;stroke:#000000;stroke-opacity:1;stroke-width:0.53;stroke-linecap:butt;stroke-linejoin:round;stroke-miterlimit:10;stroke-dasharray:none"
         id="path320" /><path
         d="m 254.34,29.65 0,4.26"
         style="fill:none;stroke:#000000;stroke-opacity:1;stroke-width:0.53;stroke-linecap:butt;stroke-linejoin:round;stroke-miterlimit:10;stroke-dasharray:none"
         id="path322" /><path
         d="m 282.56,29.65 0,4.26"
         style="fill:none;stroke:#000000;stroke-opacity:1;stroke-width:0.53;stroke-linecap:butt;stroke-linejoin:round;stroke-miterlimit:10;stroke-dasharray:none"
         id="path324" /><path
         d="m 310.79,29.65 0,4.26"
         style="fill:none;stroke:#000000;stroke-opacity:1;stroke-width:0.53;stroke-linecap:butt;stroke-linejoin:round;stroke-miterlimit:10;stroke-dasharray:none"
         id="path326" /><path
         d="m 339.01,29.65 0,4.26"
         style="fill:none;stroke:#000000;stroke-opacity:1;stroke-width:0.53;stroke-linecap:butt;stroke-linejoin:round;stroke-miterlimit:10;stroke-dasharray:none"
         id="path328" /></g><g
       id="g330" /><g
       id="g332"><text
         transform="matrix(1,0,0,-1,223.61,20.36)"
         id="text334"><tspan
           style="fill:#000000;fill-opacity:1;fill-rule:nonzero;stroke:none;font-family:Helvetica;font-variant:normal;font-weight:normal;font-size:9;writing-mode:lr;-inkscape-font-specification:Helvetica"
           x="0"
           y="0"
           id="tspan336">0</tspan></text>
<text
         transform="matrix(1,0,0,-1,249.34,20.36)"
         id="text338"><tspan
           style="fill:#000000;fill-opacity:1;fill-rule:nonzero;stroke:none;font-family:Helvetica;font-variant:normal;font-weight:normal;font-size:9;writing-mode:lr;-inkscape-font-specification:Helvetica"
           x="0 5.004"
           y="0"
           sodipodi:role="line"
           id="tspan340">25</tspan></text>
<text
         transform="matrix(1,0,0,-1,277.56,20.36)"
         id="text342"><tspan
           style="fill:#000000;fill-opacity:1;fill-rule:nonzero;stroke:none;font-family:Helvetica;font-variant:normal;font-weight:normal;font-size:9;writing-mode:lr;-inkscape-font-specification:Helvetica"
           x="0 5.004"
           y="0"
           sodipodi:role="line"
           id="tspan344">50</tspan></text>
<text
         transform="matrix(1,0,0,-1,305.78,20.36)"
         id="text346"><tspan
           style="fill:#000000;fill-opacity:1;fill-rule:nonzero;stroke:none;font-family:Helvetica;font-variant:normal;font-weight:normal;font-size:9;writing-mode:lr;-inkscape-font-specification:Helvetica"
           x="0 5.004"
           y="0"
           sodipodi:role="line"
           id="tspan348">75</tspan></text>
<text
         transform="matrix(1,0,0,-1,331.5,20.36)"
         id="text350"><tspan
           style="fill:#000000;fill-opacity:1;fill-rule:nonzero;stroke:none;font-family:Helvetica;font-variant:normal;font-weight:normal;font-size:9;writing-mode:lr;-inkscape-font-specification:Helvetica"
           x="0 5.004 10.008"
           y="0"
           sodipodi:role="line"
           id="tspan352">100</tspan></text>
</g><g
       id="g354" /><g
       id="g356" /><g
       id="g358" /><g
       id="g360" /><g
       id="g362"><text
         transform="matrix(1,0,0,-1,254.7,10.8)"
         id="text364"><tspan
           style="fill:#000000;fill-opacity:1;fill-rule:nonzero;stroke:none;font-family:Times New Roman;font-variant:normal;font-weight:normal;font-size:9;writing-mode:lr;-inkscape-font-specification:Times-Roman"
           x="0 5.004 7.506 10.503 15.003 18.999 21.501 26.001 28.998 32.994 35.244 38.241 42.741 47.241 51.237"
           y="0"
           sodipodi:role="line"
           id="tspan366">Structure Index</tspan></text>
</g><g
       id="g368" /><g
       id="g370"><text
         transform="matrix(0,1,1,0,196.29,69.36)"
         id="text372"><tspan
           style="fill:#000000;fill-opacity:1;fill-rule:nonzero;stroke:none;font-family:Times New Roman;font-variant:normal;font-weight:normal;font-size:9;writing-mode:lr;-inkscape-font-specification:Times-Roman"
           x="0 5.499 9.999 12.996 15.498 19.494 23.994 30.996 34.992 39.492 41.994 44.244 47.241 51.741 56.241 60.237"
           y="0"
           sodipodi:role="line"
           id="tspan374">Enrichment Index</tspan></text>
</g><g
       id="g376" /><g
       id="g378"><text
         transform="matrix(1,0,0,-1,246.5,173.14)"
         id="text380"><tspan
           style="fill:#000000;fill-opacity:1;fill-rule:nonzero;stroke:none;font-family:Times New Roman;font-variant:normal;font-weight:bold;font-size:11;writing-mode:lr;-inkscape-font-specification:Times-Bold"
           x="0 7.942 14.058 20.174 22.924 29.04 32.098 37.598 43.714 47.377 50.127 55.627 61.127 66.627"
           y="0"
           sodipodi:role="line"
           id="tspan382">Cup plant 2013</tspan></text>
</g><g
       id="g384" /><g
       id="g386" /><g
       id="g388" /><g
       id="g390" /><g
       id="g392" /><g
       id="g394" /><g
       id="g396"><g
         id="g398"
         clip-path="url(#clipPath400)"><path
           d="m 359.06,0 179.53,0 0,198.43 -179.53,0 0,-198.43 z"
           style="fill:#ffffff;fill-opacity:1;fill-rule:nonzero;stroke:#ffffff;stroke-opacity:1;stroke-width:1.06;stroke-linecap:round;stroke-linejoin:round;stroke-miterlimit:10;stroke-dasharray:none"
           id="path404" /></g></g><g
       id="g406" /><g
       id="g408" /><g
       id="g410" /><g
       id="g412"><g
         id="g414"
         clip-path="url(#clipPath416)"><path
           d="m 400,33.91 124.18,0 0,135.64 -124.18,0 0,-135.64 z"
           style="fill:#ffffff;fill-opacity:1;fill-rule:nonzero;stroke:none"
           id="path420" /><path
           d="m 495.41,142.39 c 0,1.17 0.96,2.13 2.12,2.13 1.17,0 2.13,-0.96 2.13,-2.13 0,-1.17 -0.96,-2.13 -2.13,-2.13 -1.16,0 -2.12,0.96 -2.12,2.13"
           style="fill:#000000;fill-opacity:1;fill-rule:nonzero;stroke:#000000;stroke-opacity:1;stroke-width:0.75;stroke-linecap:round;stroke-linejoin:round;stroke-miterlimit:10;stroke-dasharray:none"
           id="path422" /><path
           d="m 423.44,115.09 c 0,1.17 0.96,2.13 2.13,2.13 1.17,0 2.12,-0.96 2.12,-2.13 0,-1.17 -0.95,-2.13 -2.12,-2.13 -1.17,0 -2.13,0.96 -2.13,2.13"
           style="fill:#000000;fill-opacity:1;fill-rule:nonzero;stroke:#000000;stroke-opacity:1;stroke-width:0.75;stroke-linecap:round;stroke-linejoin:round;stroke-miterlimit:10;stroke-dasharray:none"
           id="path424" /><path
           d="m 457.85,95.47 c 0,1.17 0.95,2.13 2.12,2.13 1.17,0 2.13,-0.96 2.13,-2.13 0,-1.17 -0.96,-2.13 -2.13,-2.13 -1.17,0 -2.12,0.96 -2.12,2.13"
           style="fill:#000000;fill-opacity:1;fill-rule:nonzero;stroke:#000000;stroke-opacity:1;stroke-width:0.75;stroke-linecap:round;stroke-linejoin:round;stroke-miterlimit:10;stroke-dasharray:none"
           id="path426" /><path
           d="m 484.32,136.4 c 0,1.17 0.96,2.13 2.13,2.13 1.17,0 2.12,-0.96 2.12,-2.13 0,-1.16 -0.95,-2.12 -2.12,-2.12 -1.17,0 -2.13,0.96 -2.13,2.12"
           style="fill:#ffffff;fill-opacity:1;fill-rule:nonzero;stroke:#000000;stroke-opacity:1;stroke-width:0.75;stroke-linecap:round;stroke-linejoin:round;stroke-miterlimit:10;stroke-dasharray:none"
           id="path428" /><path
           d="m 439.82,107.54 c 0,1.17 0.96,2.13 2.13,2.13 1.17,0 2.12,-0.96 2.12,-2.13 0,-1.17 -0.95,-2.12 -2.12,-2.12 -1.17,0 -2.13,0.95 -2.13,2.12"
           style="fill:#ffffff;fill-opacity:1;fill-rule:nonzero;stroke:#000000;stroke-opacity:1;stroke-width:0.75;stroke-linecap:round;stroke-linejoin:round;stroke-miterlimit:10;stroke-dasharray:none"
           id="path430" /><path
           d="m 444.44,57.48 c 0,1.17 0.95,2.13 2.12,2.13 1.17,0 2.13,-0.96 2.13,-2.13 0,-1.17 -0.96,-2.13 -2.13,-2.13 -1.17,0 -2.12,0.96 -2.12,2.13"
           style="fill:#ffffff;fill-opacity:1;fill-rule:nonzero;stroke:#000000;stroke-opacity:1;stroke-width:0.75;stroke-linecap:round;stroke-linejoin:round;stroke-miterlimit:10;stroke-dasharray:none"
           id="path432" /><path
           d="m 462.09,33.91 0,135.63"
           style="fill:none;stroke:#000000;stroke-opacity:1;stroke-width:0.43;stroke-linecap:butt;stroke-linejoin:round;stroke-miterlimit:10;stroke-dasharray:none"
           id="path434" /><path
           d="m 400,101.72 124.18,0"
           style="fill:none;stroke:#000000;stroke-opacity:1;stroke-width:0.43;stroke-linecap:butt;stroke-linejoin:round;stroke-miterlimit:10;stroke-dasharray:none"
           id="path436" /><path
           d="m 400,33.91 124.18,0 0,135.64 -124.18,0 0,-135.64 z"
           style="fill:none;stroke:#000000;stroke-opacity:1;stroke-width:0.43;stroke-linecap:round;stroke-linejoin:round;stroke-miterlimit:10;stroke-dasharray:none"
           id="path438" /></g></g><g
       id="g440" /><g
       id="g442"><path
         d="m 400,33.91 0,135.63"
         style="fill:none;stroke:#000000;stroke-opacity:1;stroke-width:0.53;stroke-linecap:butt;stroke-linejoin:round;stroke-miterlimit:10;stroke-dasharray:none"
         id="path444" /></g><g
       id="g446"><text
         transform="matrix(1,0,0,-1,388.41,37.09)"
         id="text448"><tspan
           style="fill:#000000;fill-opacity:1;fill-rule:nonzero;stroke:none;font-family:Times New Roman;font-variant:normal;font-weight:normal;font-size:9;writing-mode:lr;-inkscape-font-specification:Times-Roman"
           x="0"
           y="0"
           id="tspan450">0</tspan></text>
<text
         transform="matrix(1,0,0,-1,383.91,67.92)"
         id="text452"><tspan
           style="fill:#000000;fill-opacity:1;fill-rule:nonzero;stroke:none;font-family:Times New Roman;font-variant:normal;font-weight:normal;font-size:9;writing-mode:lr;-inkscape-font-specification:Times-Roman"
           x="0 4.5"
           y="0"
           sodipodi:role="line"
           id="tspan454">25</tspan></text>
<text
         transform="matrix(1,0,0,-1,383.91,98.75)"
         id="text456"><tspan
           style="fill:#000000;fill-opacity:1;fill-rule:nonzero;stroke:none;font-family:Times New Roman;font-variant:normal;font-weight:normal;font-size:9;writing-mode:lr;-inkscape-font-specification:Times-Roman"
           x="0 4.5"
           y="0"
           sodipodi:role="line"
           id="tspan458">50</tspan></text>
<text
         transform="matrix(1,0,0,-1,383.91,129.57)"
         id="text460"><tspan
           style="fill:#000000;fill-opacity:1;fill-rule:nonzero;stroke:none;font-family:Times New Roman;font-variant:normal;font-weight:normal;font-size:9;writing-mode:lr;-inkscape-font-specification:Times-Roman"
           x="0 4.5"
           y="0"
           sodipodi:role="line"
           id="tspan462">75</tspan></text>
<text
         transform="matrix(1,0,0,-1,379.41,160.4)"
         id="text464"><tspan
           style="fill:#000000;fill-opacity:1;fill-rule:nonzero;stroke:none;font-family:Times New Roman;font-variant:normal;font-weight:normal;font-size:9;writing-mode:lr;-inkscape-font-specification:Times-Roman"
           x="0 4.5 9"
           y="0"
           sodipodi:role="line"
           id="tspan466">100</tspan></text>
</g><g
       id="g468" /><g
       id="g470"><path
         d="m 395.75,40.07 4.25,0"
         style="fill:none;stroke:#000000;stroke-opacity:1;stroke-width:0.53;stroke-linecap:butt;stroke-linejoin:round;stroke-miterlimit:10;stroke-dasharray:none"
         id="path472" /><path
         d="m 395.75,70.9 4.25,0"
         style="fill:none;stroke:#000000;stroke-opacity:1;stroke-width:0.53;stroke-linecap:butt;stroke-linejoin:round;stroke-miterlimit:10;stroke-dasharray:none"
         id="path474" /><path
         d="m 395.75,101.72 4.25,0"
         style="fill:none;stroke:#000000;stroke-opacity:1;stroke-width:0.53;stroke-linecap:butt;stroke-linejoin:round;stroke-miterlimit:10;stroke-dasharray:none"
         id="path476" /><path
         d="m 395.75,132.55 4.25,0"
         style="fill:none;stroke:#000000;stroke-opacity:1;stroke-width:0.53;stroke-linecap:butt;stroke-linejoin:round;stroke-miterlimit:10;stroke-dasharray:none"
         id="path478" /><path
         d="m 395.75,163.38 4.25,0"
         style="fill:none;stroke:#000000;stroke-opacity:1;stroke-width:0.53;stroke-linecap:butt;stroke-linejoin:round;stroke-miterlimit:10;stroke-dasharray:none"
         id="path480" /></g><g
       id="g482" /><g
       id="g484" /><g
       id="g486" /><g
       id="g488" /><g
       id="g490"><path
         d="m 400,33.91 124.18,0"
         style="fill:none;stroke:#000000;stroke-opacity:1;stroke-width:0.53;stroke-linecap:butt;stroke-linejoin:round;stroke-miterlimit:10;stroke-dasharray:none"
         id="path492" /></g><g
       id="g494"><path
         d="m 405.64,29.65 0,4.26"
         style="fill:none;stroke:#000000;stroke-opacity:1;stroke-width:0.53;stroke-linecap:butt;stroke-linejoin:round;stroke-miterlimit:10;stroke-dasharray:none"
         id="path496" /><path
         d="m 433.87,29.65 0,4.26"
         style="fill:none;stroke:#000000;stroke-opacity:1;stroke-width:0.53;stroke-linecap:butt;stroke-linejoin:round;stroke-miterlimit:10;stroke-dasharray:none"
         id="path498" /><path
         d="m 462.09,29.65 0,4.26"
         style="fill:none;stroke:#000000;stroke-opacity:1;stroke-width:0.53;stroke-linecap:butt;stroke-linejoin:round;stroke-miterlimit:10;stroke-dasharray:none"
         id="path500" /><path
         d="m 490.31,29.65 0,4.26"
         style="fill:none;stroke:#000000;stroke-opacity:1;stroke-width:0.53;stroke-linecap:butt;stroke-linejoin:round;stroke-miterlimit:10;stroke-dasharray:none"
         id="path502" /><path
         d="m 518.54,29.65 0,4.26"
         style="fill:none;stroke:#000000;stroke-opacity:1;stroke-width:0.53;stroke-linecap:butt;stroke-linejoin:round;stroke-miterlimit:10;stroke-dasharray:none"
         id="path504" /></g><g
       id="g506" /><g
       id="g508"><text
         transform="matrix(1,0,0,-1,403.14,20.36)"
         id="text510"><tspan
           style="fill:#000000;fill-opacity:1;fill-rule:nonzero;stroke:none;font-family:Helvetica;font-variant:normal;font-weight:normal;font-size:9;writing-mode:lr;-inkscape-font-specification:Helvetica"
           x="0"
           y="0"
           id="tspan512">0</tspan></text>
<text
         transform="matrix(1,0,0,-1,428.86,20.36)"
         id="text514"><tspan
           style="fill:#000000;fill-opacity:1;fill-rule:nonzero;stroke:none;font-family:Helvetica;font-variant:normal;font-weight:normal;font-size:9;writing-mode:lr;-inkscape-font-specification:Helvetica"
           x="0 5.004"
           y="0"
           sodipodi:role="line"
           id="tspan516">25</tspan></text>
<text
         transform="matrix(1,0,0,-1,457.09,20.36)"
         id="text518"><tspan
           style="fill:#000000;fill-opacity:1;fill-rule:nonzero;stroke:none;font-family:Helvetica;font-variant:normal;font-weight:normal;font-size:9;writing-mode:lr;-inkscape-font-specification:Helvetica"
           x="0 5.004"
           y="0"
           sodipodi:role="line"
           id="tspan520">50</tspan></text>
<text
         transform="matrix(1,0,0,-1,485.31,20.36)"
         id="text522"><tspan
           style="fill:#000000;fill-opacity:1;fill-rule:nonzero;stroke:none;font-family:Helvetica;font-variant:normal;font-weight:normal;font-size:9;writing-mode:lr;-inkscape-font-specification:Helvetica"
           x="0 5.004"
           y="0"
           sodipodi:role="line"
           id="tspan524">75</tspan></text>
<text
         transform="matrix(1,0,0,-1,511.03,20.36)"
         id="text526"><tspan
           style="fill:#000000;fill-opacity:1;fill-rule:nonzero;stroke:none;font-family:Helvetica;font-variant:normal;font-weight:normal;font-size:9;writing-mode:lr;-inkscape-font-specification:Helvetica"
           x="0 5.004 10.008"
           y="0"
           sodipodi:role="line"
           id="tspan528">100</tspan></text>
</g><g
       id="g530" /><g
       id="g532" /><g
       id="g534" /><g
       id="g536" /><g
       id="g538"><text
         transform="matrix(1,0,0,-1,434.22,10.8)"
         id="text540"><tspan
           style="fill:#000000;fill-opacity:1;fill-rule:nonzero;stroke:none;font-family:Times New Roman;font-variant:normal;font-weight:normal;font-size:9;writing-mode:lr;-inkscape-font-specification:Times-Roman"
           x="0 5.004 7.506 10.503 15.003 18.999 21.501 26.001 28.998 32.994 35.244 38.241 42.741 47.241 51.237"
           y="0"
           sodipodi:role="line"
           id="tspan542">Structure Index</tspan></text>
</g><g
       id="g544" /><g
       id="g546"><text
         transform="matrix(0,1,1,0,375.81,69.36)"
         id="text548"><tspan
           style="fill:#000000;fill-opacity:1;fill-rule:nonzero;stroke:none;font-family:Times New Roman;font-variant:normal;font-weight:normal;font-size:9;writing-mode:lr;-inkscape-font-specification:Times-Roman"
           x="0 5.499 9.999 12.996 15.498 19.494 23.994 30.996 34.992 39.492 41.994 44.244 47.241 51.741 56.241 60.237"
           y="0"
           sodipodi:role="line"
           id="tspan550">Enrichment Index</tspan></text>
</g><g
       id="g552" /><g
       id="g554"><text
         transform="matrix(1,0,0,-1,428.33,173.14)"
         id="text556"><tspan
           style="fill:#000000;fill-opacity:1;fill-rule:nonzero;stroke:none;font-family:Times New Roman;font-variant:normal;font-weight:bold;font-size:11;writing-mode:lr;-inkscape-font-specification:Times-Bold"
           x="0 10.384 15.884 18.942 23.826 28.71 31.46 36.96 42.46 47.96 53.46 56.518 62.018"
           y="0"
           sodipodi:role="line"
           id="tspan558">Maize 2012/13</tspan></text>
</g><g
       id="g560" /><g
       id="g562" /><g
       id="g564" /><g
       id="g566" /><g
       id="g568" /></g></svg>