<?xml version="1.0" encoding="UTF-8" standalone="no"?>
<!-- Created with Inkscape (http://www.inkscape.org/) -->

<svg
   xmlns:dc="http://purl.org/dc/elements/1.1/"
   xmlns:cc="http://creativecommons.org/ns#"
   xmlns:rdf="http://www.w3.org/1999/02/22-rdf-syntax-ns#"
   xmlns:svg="http://www.w3.org/2000/svg"
   xmlns="http://www.w3.org/2000/svg"
   xmlns:sodipodi="http://sodipodi.sourceforge.net/DTD/sodipodi-0.dtd"
   xmlns:inkscape="http://www.inkscape.org/namespaces/inkscape"
   id="svg2"
   version="1.1"
   inkscape:version="0.48.5 r10040"
   width="231.36034"
   height="258.42529"
   xml:space="preserve"
   sodipodi:docname="FaunalProfileTotal.pdf"><metadata
     id="metadata8"><rdf:RDF><cc:Work
         rdf:about=""><dc:format>image/svg+xml</dc:format><dc:type
           rdf:resource="http://purl.org/dc/dcmitype/StillImage" /><dc:title></dc:title></cc:Work></rdf:RDF></metadata><defs
     id="defs6"><clipPath
       clipPathUnits="userSpaceOnUse"
       id="clipPath22"><path
         d="m 0,0 198.43,0 0,243.78 L 0,243.78 0,0 z"
         id="path24"
         inkscape:connector-curvature="0" /></clipPath><clipPath
       clipPathUnits="userSpaceOnUse"
       id="clipPath38"><path
         d="m 37.28,77.66 146.74,0 0,137.24 -146.74,0 0,-137.24 z"
         id="path40"
         inkscape:connector-curvature="0" /></clipPath></defs><sodipodi:namedview
     pagecolor="#ffffff"
     bordercolor="#666666"
     borderopacity="1"
     objecttolerance="10"
     gridtolerance="10"
     guidetolerance="10"
     inkscape:pageopacity="0"
     inkscape:pageshadow="2"
     inkscape:window-width="1680"
     inkscape:window-height="1028"
     id="namedview4"
     showgrid="false"
     units="cm"
     fit-margin-top="0.2"
     fit-margin-left="0.2"
     fit-margin-bottom="0.2"
     fit-margin-right="0.2"
     inkscape:zoom="2.1975598"
     inkscape:cx="205.78846"
     inkscape:cy="82.208498"
     inkscape:window-x="-8"
     inkscape:window-y="-8"
     inkscape:window-maximized="1"
     inkscape:current-layer="g10" /><g
     id="g10"
     inkscape:groupmode="layer"
     inkscape:label="FaunalProfileTotal"
     transform="matrix(1.25,0,0,-1.25,-6.0950265,289.53046)"><g
       id="g12" /><g
       id="g14" /><g
       id="g16" /><g
       id="g28" /><g
       id="g30" /><g
       id="g32" /><g
       id="g34"><g
         id="g36"
         clip-path="url(#clipPath38)"><path
           d="m 37.28,77.66 146.74,0 0,137.24 -146.74,0 0,-137.24 z"
           style="fill:#ffffff;fill-opacity:1;fill-rule:nonzero;stroke:none"
           id="path42"
           inkscape:connector-curvature="0" /><path
           d="m 138.69,138.58 2.86,-4.96 -5.73,0 2.87,4.96"
           style="fill:none;stroke:#000000;stroke-width:0.75;stroke-linecap:round;stroke-linejoin:round;stroke-miterlimit:10;stroke-opacity:1;stroke-dasharray:none"
           id="path44"
           inkscape:connector-curvature="0" /><path
           d="m 140.34,128.79 2.86,-4.96 -5.72,0 2.86,4.96"
           style="fill:none;stroke:#000000;stroke-width:0.75;stroke-linecap:round;stroke-linejoin:round;stroke-miterlimit:10;stroke-opacity:1;stroke-dasharray:none"
           id="path46"
           inkscape:connector-curvature="0" /><path
           d="m 77.3,188.57 2.87,-4.96 -5.73,0 2.86,4.96"
           style="fill:none;stroke:#000000;stroke-width:0.75;stroke-linecap:round;stroke-linejoin:round;stroke-miterlimit:10;stroke-opacity:1;stroke-dasharray:none"
           id="path48"
           inkscape:connector-curvature="0" /><path
           d="m 109.98,149.59 2.86,-4.96 -5.72,0 2.86,4.96 z"
           style="fill:#000000;fill-opacity:1;fill-rule:nonzero;stroke:#000000;stroke-width:0.75;stroke-linecap:round;stroke-linejoin:round;stroke-miterlimit:10;stroke-opacity:1;stroke-dasharray:none"
           id="path50"
           inkscape:connector-curvature="0" /><path
           d="m 109.71,173.25 2.87,-4.96 -5.73,0 2.86,4.96 z"
           style="fill:#000000;fill-opacity:1;fill-rule:nonzero;stroke:#000000;stroke-width:0.75;stroke-linecap:round;stroke-linejoin:round;stroke-miterlimit:10;stroke-opacity:1;stroke-dasharray:none"
           id="path52"
           inkscape:connector-curvature="0" /><path
           d="m 134.09,174.54 2.86,-4.96 -5.72,0 2.86,4.96 z"
           style="fill:#000000;fill-opacity:1;fill-rule:nonzero;stroke:#000000;stroke-width:0.75;stroke-linecap:round;stroke-linejoin:round;stroke-miterlimit:10;stroke-opacity:1;stroke-dasharray:none"
           id="path54"
           inkscape:connector-curvature="0" /><path
           d="m 105.77,175.19 c 0,1.17 0.95,2.12 2.12,2.12 1.17,0 2.13,-0.95 2.13,-2.12 0,-1.17 -0.96,-2.13 -2.13,-2.13 -1.17,0 -2.12,0.96 -2.12,2.13"
           style="fill:#000000;fill-opacity:1;fill-rule:nonzero;stroke:#000000;stroke-width:0.75;stroke-linecap:round;stroke-linejoin:round;stroke-miterlimit:10;stroke-opacity:1;stroke-dasharray:none"
           id="path56"
           inkscape:connector-curvature="0" /><path
           d="m 121,186.38 c 0,1.17 0.96,2.13 2.13,2.13 1.17,0 2.12,-0.96 2.12,-2.13 0,-1.17 -0.95,-2.12 -2.12,-2.12 -1.17,0 -2.13,0.95 -2.13,2.12"
           style="fill:#000000;fill-opacity:1;fill-rule:nonzero;stroke:#000000;stroke-width:0.75;stroke-linecap:round;stroke-linejoin:round;stroke-miterlimit:10;stroke-opacity:1;stroke-dasharray:none"
           id="path58"
           inkscape:connector-curvature="0" /><path
           d="m 53.06,142.89 c 0,1.17 0.95,2.13 2.12,2.13 1.17,0 2.13,-0.96 2.13,-2.13 0,-1.16 -0.96,-2.12 -2.13,-2.12 -1.17,0 -2.12,0.96 -2.12,2.12"
           style="fill:#000000;fill-opacity:1;fill-rule:nonzero;stroke:#000000;stroke-width:0.75;stroke-linecap:round;stroke-linejoin:round;stroke-miterlimit:10;stroke-opacity:1;stroke-dasharray:none"
           id="path60"
           inkscape:connector-curvature="0" /><path
           d="m 76.13,175.59 3.77,0 0,3.77 -3.77,0 0,-3.77 z"
           style="fill:#000000;fill-opacity:1;fill-rule:nonzero;stroke:#000000;stroke-width:0.75;stroke-linecap:round;stroke-linejoin:round;stroke-miterlimit:10;stroke-opacity:1;stroke-dasharray:none"
           id="path62"
           inkscape:connector-curvature="0" /><path
           d="m 143.07,149.45 3.77,0 0,3.77 -3.77,0 0,-3.77 z"
           style="fill:#000000;fill-opacity:1;fill-rule:nonzero;stroke:#000000;stroke-width:0.75;stroke-linecap:round;stroke-linejoin:round;stroke-miterlimit:10;stroke-opacity:1;stroke-dasharray:none"
           id="path64"
           inkscape:connector-curvature="0" /><path
           d="m 84,169.35 3.77,0 0,3.77 -3.77,0 0,-3.77 z"
           style="fill:#000000;fill-opacity:1;fill-rule:nonzero;stroke:#000000;stroke-width:0.75;stroke-linecap:round;stroke-linejoin:round;stroke-miterlimit:10;stroke-opacity:1;stroke-dasharray:none"
           id="path66"
           inkscape:connector-curvature="0" /><path
           d="m 151.21,188.81 c 0,1.17 0.95,2.13 2.12,2.13 1.17,0 2.13,-0.96 2.13,-2.13 0,-1.17 -0.96,-2.12 -2.13,-2.12 -1.17,0 -2.12,0.95 -2.12,2.12"
           style="fill:none;stroke:#000000;stroke-width:0.75;stroke-linecap:round;stroke-linejoin:round;stroke-miterlimit:10;stroke-opacity:1;stroke-dasharray:none"
           id="path68"
           inkscape:connector-curvature="0" /><path
           d="m 65.03,159.28 c 0,1.16 0.95,2.12 2.12,2.12 1.17,0 2.13,-0.96 2.13,-2.12 0,-1.17 -0.96,-2.13 -2.13,-2.13 -1.17,0 -2.12,0.96 -2.12,2.13"
           style="fill:none;stroke:#000000;stroke-width:0.75;stroke-linecap:round;stroke-linejoin:round;stroke-miterlimit:10;stroke-opacity:1;stroke-dasharray:none"
           id="path70"
           inkscape:connector-curvature="0" /><path
           d="m 106.02,139.95 c 0,1.17 0.96,2.13 2.13,2.13 1.17,0 2.13,-0.96 2.13,-2.13 0,-1.17 -0.96,-2.12 -2.13,-2.12 -1.17,0 -2.13,0.95 -2.13,2.12"
           style="fill:none;stroke:#000000;stroke-width:0.75;stroke-linecap:round;stroke-linejoin:round;stroke-miterlimit:10;stroke-opacity:1;stroke-dasharray:none"
           id="path72"
           inkscape:connector-curvature="0" /><path
           d="m 136.03,143.64 2.87,-4.95 -5.73,0 2.86,4.95"
           style="fill:none;stroke:#000000;stroke-width:0.75;stroke-linecap:round;stroke-linejoin:round;stroke-miterlimit:10;stroke-opacity:1;stroke-dasharray:none"
           id="path74"
           inkscape:connector-curvature="0" /><path
           d="m 130.95,162.88 2.87,-4.96 -5.73,0 2.86,4.96"
           style="fill:none;stroke:#000000;stroke-width:0.75;stroke-linecap:round;stroke-linejoin:round;stroke-miterlimit:10;stroke-opacity:1;stroke-dasharray:none"
           id="path76"
           inkscape:connector-curvature="0" /><path
           d="m 97.1,152.78 2.86,-4.95 -5.73,0 2.87,4.95"
           style="fill:none;stroke:#000000;stroke-width:0.75;stroke-linecap:round;stroke-linejoin:round;stroke-miterlimit:10;stroke-opacity:1;stroke-dasharray:none"
           id="path78"
           inkscape:connector-curvature="0" /><path
           d="m 93.5,148.43 2.87,-4.96 -5.73,0 2.86,4.96 z"
           style="fill:#000000;fill-opacity:1;fill-rule:nonzero;stroke:#000000;stroke-width:0.75;stroke-linecap:round;stroke-linejoin:round;stroke-miterlimit:10;stroke-opacity:1;stroke-dasharray:none"
           id="path80"
           inkscape:connector-curvature="0" /><path
           d="m 151.5,153.98 2.86,-4.96 -5.73,0 2.87,4.96 z"
           style="fill:#000000;fill-opacity:1;fill-rule:nonzero;stroke:#000000;stroke-width:0.75;stroke-linecap:round;stroke-linejoin:round;stroke-miterlimit:10;stroke-opacity:1;stroke-dasharray:none"
           id="path82"
           inkscape:connector-curvature="0" /><path
           d="m 115.04,172.44 2.86,-4.96 -5.73,0 2.87,4.96 z"
           style="fill:#000000;fill-opacity:1;fill-rule:nonzero;stroke:#000000;stroke-width:0.75;stroke-linecap:round;stroke-linejoin:round;stroke-miterlimit:10;stroke-opacity:1;stroke-dasharray:none"
           id="path84"
           inkscape:connector-curvature="0" /><path
           d="m 85.96,132.79 c 0,1.17 0.96,2.13 2.13,2.13 1.17,0 2.13,-0.96 2.13,-2.13 0,-1.17 -0.96,-2.12 -2.13,-2.12 -1.17,0 -2.13,0.95 -2.13,2.12"
           style="fill:#000000;fill-opacity:1;fill-rule:nonzero;stroke:#000000;stroke-width:0.75;stroke-linecap:round;stroke-linejoin:round;stroke-miterlimit:10;stroke-opacity:1;stroke-dasharray:none"
           id="path86"
           inkscape:connector-curvature="0" /><path
           d="m 121.09,155.19 c 0,1.17 0.96,2.13 2.13,2.13 1.17,0 2.13,-0.96 2.13,-2.13 0,-1.17 -0.96,-2.12 -2.13,-2.12 -1.17,0 -2.13,0.95 -2.13,2.12"
           style="fill:#000000;fill-opacity:1;fill-rule:nonzero;stroke:#000000;stroke-width:0.75;stroke-linecap:round;stroke-linejoin:round;stroke-miterlimit:10;stroke-opacity:1;stroke-dasharray:none"
           id="path88"
           inkscape:connector-curvature="0" /><path
           d="m 78.1,145.07 c 0,1.17 0.95,2.13 2.12,2.13 1.17,0 2.13,-0.96 2.13,-2.13 0,-1.17 -0.96,-2.12 -2.13,-2.12 -1.17,0 -2.12,0.95 -2.12,2.12"
           style="fill:#000000;fill-opacity:1;fill-rule:nonzero;stroke:#000000;stroke-width:0.75;stroke-linecap:round;stroke-linejoin:round;stroke-miterlimit:10;stroke-opacity:1;stroke-dasharray:none"
           id="path90"
           inkscape:connector-curvature="0" /><path
           d="m 157.62,151.65 3.77,0 0,3.77 -3.77,0 0,-3.77 z"
           style="fill:#000000;fill-opacity:1;fill-rule:nonzero;stroke:#000000;stroke-width:0.75;stroke-linecap:round;stroke-linejoin:round;stroke-miterlimit:10;stroke-opacity:1;stroke-dasharray:none"
           id="path92"
           inkscape:connector-curvature="0" /><path
           d="m 164.2,167.38 3.77,0 0,3.77 -3.77,0 0,-3.77 z"
           style="fill:#000000;fill-opacity:1;fill-rule:nonzero;stroke:#000000;stroke-width:0.75;stroke-linecap:round;stroke-linejoin:round;stroke-miterlimit:10;stroke-opacity:1;stroke-dasharray:none"
           id="path94"
           inkscape:connector-curvature="0" /><path
           d="m 74.45,127.01 3.77,0 0,3.77 -3.77,0 0,-3.77 z"
           style="fill:#000000;fill-opacity:1;fill-rule:nonzero;stroke:#000000;stroke-width:0.75;stroke-linecap:round;stroke-linejoin:round;stroke-miterlimit:10;stroke-opacity:1;stroke-dasharray:none"
           id="path96"
           inkscape:connector-curvature="0" /><path
           d="m 137.31,181.37 c 0,1.17 0.95,2.12 2.12,2.12 1.17,0 2.13,-0.95 2.13,-2.12 0,-1.17 -0.96,-2.13 -2.13,-2.13 -1.17,0 -2.12,0.96 -2.12,2.13"
           style="fill:none;stroke:#000000;stroke-width:0.75;stroke-linecap:round;stroke-linejoin:round;stroke-miterlimit:10;stroke-opacity:1;stroke-dasharray:none"
           id="path98"
           inkscape:connector-curvature="0" /><path
           d="m 84.72,152.16 c 0,1.17 0.96,2.13 2.13,2.13 1.17,0 2.12,-0.96 2.12,-2.13 0,-1.16 -0.95,-2.12 -2.12,-2.12 -1.17,0 -2.13,0.96 -2.13,2.12"
           style="fill:none;stroke:#000000;stroke-width:0.75;stroke-linecap:round;stroke-linejoin:round;stroke-miterlimit:10;stroke-opacity:1;stroke-dasharray:none"
           id="path100"
           inkscape:connector-curvature="0" /><path
           d="m 90.92,99.83 c 0,1.17 0.96,2.12 2.13,2.12 1.17,0 2.12,-0.95 2.12,-2.12 0,-1.17 -0.95,-2.13 -2.12,-2.13 -1.17,0 -2.13,0.96 -2.13,2.13"
           style="fill:none;stroke:#000000;stroke-width:0.75;stroke-linecap:round;stroke-linejoin:round;stroke-miterlimit:10;stroke-opacity:1;stroke-dasharray:none"
           id="path102"
           inkscape:connector-curvature="0" /><path
           d="m 110.65,77.66 0,137.24"
           style="fill:none;stroke:#000000;stroke-width:0.43000001;stroke-linecap:butt;stroke-linejoin:round;stroke-miterlimit:10;stroke-opacity:1;stroke-dasharray:none"
           id="path104"
           inkscape:connector-curvature="0" /><path
           d="m 37.28,146.28 146.75,0"
           style="fill:none;stroke:#000000;stroke-width:0.43000001;stroke-linecap:butt;stroke-linejoin:round;stroke-miterlimit:10;stroke-opacity:1;stroke-dasharray:none"
           id="path106"
           inkscape:connector-curvature="0" /><path
           d="m 37.28,77.66 146.74,0 0,137.24 -146.74,0 0,-137.24 z"
           style="fill:none;stroke:#000000;stroke-width:0.43000001;stroke-linecap:round;stroke-linejoin:round;stroke-miterlimit:10;stroke-opacity:1;stroke-dasharray:none"
           id="path108"
           inkscape:connector-curvature="0" /></g></g><g
       id="g110" /><g
       id="g112"><path
         d="m 37.28,77.66 0,137.24"
         style="fill:none;stroke:#000000;stroke-width:0.52999997;stroke-linecap:butt;stroke-linejoin:round;stroke-miterlimit:10;stroke-opacity:1;stroke-dasharray:none"
         id="path114"
         inkscape:connector-curvature="0" /></g><g
       id="g116"><text
         transform="matrix(1,0,0,-1,26.7,81.58)"
         id="text118"><tspan
           style="font-size:7px;font-variant:normal;font-weight:normal;writing-mode:lr-tb;fill:#000000;fill-opacity:1;fill-rule:nonzero;stroke:none;font-family:Times New Roman;-inkscape-font-specification:Times-Roman"
           x="0"
           y="0"
           id="tspan120">0</tspan></text>
<text
         transform="matrix(1,0,0,-1,23.2,112.77)"
         id="text122"><tspan
           style="font-size:7px;font-variant:normal;font-weight:normal;writing-mode:lr-tb;fill:#000000;fill-opacity:1;fill-rule:nonzero;stroke:none;font-family:Times New Roman;-inkscape-font-specification:Times-Roman"
           x="0 3.5"
           y="0"
           sodipodi:role="line"
           id="tspan124">25</tspan></text>
<text
         transform="matrix(1,0,0,-1,23.2,143.96)"
         id="text126"><tspan
           style="font-size:7px;font-variant:normal;font-weight:normal;writing-mode:lr-tb;fill:#000000;fill-opacity:1;fill-rule:nonzero;stroke:none;font-family:Times New Roman;-inkscape-font-specification:Times-Roman"
           x="0 3.5"
           y="0"
           sodipodi:role="line"
           id="tspan128">50</tspan></text>
<text
         transform="matrix(1,0,0,-1,23.2,175.15)"
         id="text130"><tspan
           style="font-size:7px;font-variant:normal;font-weight:normal;writing-mode:lr-tb;fill:#000000;fill-opacity:1;fill-rule:nonzero;stroke:none;font-family:Times New Roman;-inkscape-font-specification:Times-Roman"
           x="0 3.5"
           y="0"
           sodipodi:role="line"
           id="tspan132">75</tspan></text>
<text
         transform="matrix(1,0,0,-1,19.7,206.34)"
         id="text134"><tspan
           style="font-size:7px;font-variant:normal;font-weight:normal;writing-mode:lr-tb;fill:#000000;fill-opacity:1;fill-rule:nonzero;stroke:none;font-family:Times New Roman;-inkscape-font-specification:Times-Roman"
           x="0 3.5 7"
           y="0"
           sodipodi:role="line"
           id="tspan136">100</tspan></text>
</g><g
       id="g138" /><g
       id="g140"><path
         d="m 33.03,83.9 4.25,0"
         style="fill:none;stroke:#000000;stroke-width:0.52999997;stroke-linecap:butt;stroke-linejoin:round;stroke-miterlimit:10;stroke-opacity:1;stroke-dasharray:none"
         id="path142"
         inkscape:connector-curvature="0" /><path
         d="m 33.03,115.09 4.25,0"
         style="fill:none;stroke:#000000;stroke-width:0.52999997;stroke-linecap:butt;stroke-linejoin:round;stroke-miterlimit:10;stroke-opacity:1;stroke-dasharray:none"
         id="path144"
         inkscape:connector-curvature="0" /><path
         d="m 33.03,146.28 4.25,0"
         style="fill:none;stroke:#000000;stroke-width:0.52999997;stroke-linecap:butt;stroke-linejoin:round;stroke-miterlimit:10;stroke-opacity:1;stroke-dasharray:none"
         id="path146"
         inkscape:connector-curvature="0" /><path
         d="m 33.03,177.47 4.25,0"
         style="fill:none;stroke:#000000;stroke-width:0.52999997;stroke-linecap:butt;stroke-linejoin:round;stroke-miterlimit:10;stroke-opacity:1;stroke-dasharray:none"
         id="path148"
         inkscape:connector-curvature="0" /><path
         d="m 33.03,208.66 4.25,0"
         style="fill:none;stroke:#000000;stroke-width:0.52999997;stroke-linecap:butt;stroke-linejoin:round;stroke-miterlimit:10;stroke-opacity:1;stroke-dasharray:none"
         id="path150"
         inkscape:connector-curvature="0" /></g><g
       id="g152" /><g
       id="g154" /><g
       id="g156" /><g
       id="g158" /><g
       id="g160"><path
         d="m 37.28,77.66 146.75,0"
         style="fill:none;stroke:#000000;stroke-width:0.52999997;stroke-linecap:butt;stroke-linejoin:round;stroke-miterlimit:10;stroke-opacity:1;stroke-dasharray:none"
         id="path162"
         inkscape:connector-curvature="0" /></g><g
       id="g164"><path
         d="m 43.95,73.41 0,4.25"
         style="fill:none;stroke:#000000;stroke-width:0.52999997;stroke-linecap:butt;stroke-linejoin:round;stroke-miterlimit:10;stroke-opacity:1;stroke-dasharray:none"
         id="path166"
         inkscape:connector-curvature="0" /><path
         d="m 77.3,73.41 0,4.25"
         style="fill:none;stroke:#000000;stroke-width:0.52999997;stroke-linecap:butt;stroke-linejoin:round;stroke-miterlimit:10;stroke-opacity:1;stroke-dasharray:none"
         id="path168"
         inkscape:connector-curvature="0" /><path
         d="m 110.65,73.41 0,4.25"
         style="fill:none;stroke:#000000;stroke-width:0.52999997;stroke-linecap:butt;stroke-linejoin:round;stroke-miterlimit:10;stroke-opacity:1;stroke-dasharray:none"
         id="path170"
         inkscape:connector-curvature="0" /><path
         d="m 144,73.41 0,4.25"
         style="fill:none;stroke:#000000;stroke-width:0.52999997;stroke-linecap:butt;stroke-linejoin:round;stroke-miterlimit:10;stroke-opacity:1;stroke-dasharray:none"
         id="path172"
         inkscape:connector-curvature="0" /><path
         d="m 177.36,73.41 0,4.25"
         style="fill:none;stroke:#000000;stroke-width:0.52999997;stroke-linecap:butt;stroke-linejoin:round;stroke-miterlimit:10;stroke-opacity:1;stroke-dasharray:none"
         id="path174"
         inkscape:connector-curvature="0" /></g><g
       id="g176" /><g
       id="g178"><text
         transform="matrix(1,0,0,-1,42.01,65.55)"
         id="text180"><tspan
           style="font-size:7px;font-variant:normal;font-weight:normal;writing-mode:lr-tb;fill:#000000;fill-opacity:1;fill-rule:nonzero;stroke:none;font-family:Helvetica;-inkscape-font-specification:Helvetica"
           x="0"
           y="0"
           id="tspan182">0</tspan></text>
<text
         transform="matrix(1,0,0,-1,73.41,65.55)"
         id="text184"><tspan
           style="font-size:7px;font-variant:normal;font-weight:normal;writing-mode:lr-tb;fill:#000000;fill-opacity:1;fill-rule:nonzero;stroke:none;font-family:Helvetica;-inkscape-font-specification:Helvetica"
           x="0 3.892"
           y="0"
           sodipodi:role="line"
           id="tspan186">25</tspan></text>
<text
         transform="matrix(1,0,0,-1,106.76,65.55)"
         id="text188"><tspan
           style="font-size:7px;font-variant:normal;font-weight:normal;writing-mode:lr-tb;fill:#000000;fill-opacity:1;fill-rule:nonzero;stroke:none;font-family:Helvetica;-inkscape-font-specification:Helvetica"
           x="0 3.892"
           y="0"
           sodipodi:role="line"
           id="tspan190">50</tspan></text>
<text
         transform="matrix(1,0,0,-1,140.11,65.55)"
         id="text192"><tspan
           style="font-size:7px;font-variant:normal;font-weight:normal;writing-mode:lr-tb;fill:#000000;fill-opacity:1;fill-rule:nonzero;stroke:none;font-family:Helvetica;-inkscape-font-specification:Helvetica"
           x="0 3.892"
           y="0"
           sodipodi:role="line"
           id="tspan194">75</tspan></text>
<text
         transform="matrix(1,0,0,-1,171.52,65.55)"
         id="text196"><tspan
           style="font-size:7px;font-variant:normal;font-weight:normal;writing-mode:lr-tb;fill:#000000;fill-opacity:1;fill-rule:nonzero;stroke:none;font-family:Helvetica;-inkscape-font-specification:Helvetica"
           x="0 3.892 7.7839999"
           y="0"
           sodipodi:role="line"
           id="tspan198">100</tspan></text>
</g><g
       id="g200" /><g
       id="g202" /><g
       id="g204" /><g
       id="g206" /><g
       id="g208"><text
         transform="matrix(1,0,0,-1,85.88,56.65)"
         id="text210"><tspan
           style="font-size:8px;font-variant:normal;font-weight:normal;writing-mode:lr-tb;fill:#000000;fill-opacity:1;fill-rule:nonzero;stroke:none;font-family:Times New Roman;-inkscape-font-specification:Times-Roman"
           x="0 4.448 6.6719999 9.3360004 13.336 16.888 19.112 23.112 25.775999 29.327999 31.327999 33.992001 37.992001 41.992001 45.543999"
           y="0"
           sodipodi:role="line"
           id="tspan212">Structure Index</tspan></text>
</g><g
       id="g214" /><g
       id="g216"><text
         transform="matrix(0,1,1,0,16.1,117.51)"
         id="text218"><tspan
           style="font-size:8px;font-variant:normal;font-weight:normal;writing-mode:lr-tb;fill:#000000;fill-opacity:1;fill-rule:nonzero;stroke:none;font-family:Times New Roman;-inkscape-font-specification:Times-Roman"
           x="0 4.888 8.8879995 11.552 13.776 17.327999 21.327999 27.552 31.104 35.104 37.327999 39.327999 41.992001 45.992001 49.992001 53.543999"
           y="0"
           sodipodi:role="line"
           id="tspan220">Enrichment Index</tspan></text>
</g><g
       id="g222" /><g
       id="g224" /><g
       id="g226" /><g
       id="g228" /><g
       id="g230" /><g
       id="g232" /><g
       id="g234" /><g
       id="g236" /><g
       id="g238" /><g
       id="g240" /><g
       id="g242" /><g
       id="g244"
       transform="translate(30.4,14.4)"><path
         d="m 25.08,30.13 c 0,1.17 0.95,2.12 2.12,2.12 1.17,0 2.13,-0.95 2.13,-2.12 0,-1.17 -0.96,-2.13 -2.13,-2.13 -1.17,0 -2.12,0.96 -2.12,2.13"
         style="fill:none;stroke:#000000;stroke-width:0.75;stroke-linecap:round;stroke-linejoin:round;stroke-miterlimit:10;stroke-opacity:1;stroke-dasharray:none"
         id="path246"
         inkscape:connector-curvature="0" /></g><g
       id="g248" /><g
       id="g250" /><g
       id="g252" /><g
       id="g254"
       transform="translate(30.4,14.4)"><path
         d="m 58.03,28.24 3.77,0 0,3.77 -3.77,0 0,-3.77 z"
         style="fill:#000000;fill-opacity:1;fill-rule:nonzero;stroke:#000000;stroke-width:0.75;stroke-linecap:round;stroke-linejoin:round;stroke-miterlimit:10;stroke-opacity:1;stroke-dasharray:none"
         id="path256"
         inkscape:connector-curvature="0" /></g><g
       id="g258" /><g
       id="g260" /><g
       id="g262" /><g
       id="g264"
       transform="translate(30.4,14.4)"><path
         d="m 95.84,30.13 c 0,1.17 0.95,2.12 2.12,2.12 1.17,0 2.13,-0.95 2.13,-2.12 0,-1.17 -0.96,-2.13 -2.13,-2.13 -1.17,0 -2.12,0.96 -2.12,2.13"
         style="fill:#000000;fill-opacity:1;fill-rule:nonzero;stroke:#000000;stroke-width:0.75;stroke-linecap:round;stroke-linejoin:round;stroke-miterlimit:10;stroke-opacity:1;stroke-dasharray:none"
         id="path266"
         inkscape:connector-curvature="0" /></g><g
       id="g268" /><g
       id="g270" /><g
       id="g272" /><g
       id="g274"
       transform="translate(-59.2,4.8)"><path
         d="m 138.23,33.43 2.86,-4.96 -5.73,0 2.87,4.96 z"
         style="fill:#000000;fill-opacity:1;fill-rule:nonzero;stroke:#000000;stroke-width:0.75;stroke-linecap:round;stroke-linejoin:round;stroke-miterlimit:10;stroke-opacity:1;stroke-dasharray:none"
         id="path276"
         inkscape:connector-curvature="0" /></g><g
       id="g278" /><g
       id="g280" /><g
       id="g282" /><g
       id="g284"
       transform="translate(-59.2,4.8)"><path
         d="m 178.49,33.43 2.86,-4.96 -5.72,0 2.86,4.96"
         style="fill:none;stroke:#000000;stroke-width:0.75;stroke-linecap:round;stroke-linejoin:round;stroke-miterlimit:10;stroke-opacity:1;stroke-dasharray:none"
         id="path286"
         inkscape:connector-curvature="0" /></g><g
       id="g288" /><g
       id="g290"
       transform="translate(30.4,14.4)"><text
         transform="matrix(1,0,0,-1,38,27.48)"
         id="text292"><tspan
           style="font-size:8px;font-style:italic;font-variant:normal;writing-mode:lr-tb;fill:#000000;fill-opacity:1;fill-rule:nonzero;stroke:none;font-family:Times New Roman;-inkscape-font-specification:Times-Italic"
           x="0 5.336"
           y="0"
           sodipodi:role="line"
           id="tspan294">Cm</tspan></text>
</g><g
       id="g296" /><g
       id="g298"
       transform="translate(30.4,14.4)"><text
         transform="matrix(1,0,0,-1,70.71,27.48)"
         id="text300"><tspan
           style="font-size:8px;font-style:italic;font-variant:normal;writing-mode:lr-tb;fill:#000000;fill-opacity:1;fill-rule:nonzero;stroke:none;font-family:Times New Roman;-inkscape-font-specification:Times-Italic"
           x="0 4 8 12"
           y="0"
           sodipodi:role="line"
           id="tspan302">Sp_Y</tspan></text>
</g><g
       id="g304" /><g
       id="g306"
       transform="translate(30.4,14.4)"><text
         transform="matrix(1,0,0,-1,108.76,27.48)"
         id="text308"><tspan
           style="font-size:8px;font-style:italic;font-variant:normal;writing-mode:lr-tb;fill:#000000;fill-opacity:1;fill-rule:nonzero;stroke:none;font-family:Times New Roman;-inkscape-font-specification:Times-Italic"
           x="0 4 8 12 14.664"
           y="0"
           sodipodi:role="line"
           id="tspan310">Sp_I1</tspan></text>
</g><g
       id="g312" /><g
       id="g314"
       transform="translate(-59.2,4.8)"><text
         transform="matrix(1,0,0,-1,149.03,27.48)"
         id="text316"><tspan
           style="font-size:8px;font-style:italic;font-variant:normal;writing-mode:lr-tb;fill:#000000;fill-opacity:1;fill-rule:nonzero;stroke:none;font-family:Times New Roman;-inkscape-font-specification:Times-Italic"
           x="0 4 8 12 14.664"
           y="0"
           sodipodi:role="line"
           id="tspan318">Sp_I2</tspan></text>
</g><g
       id="g320" /><g
       id="g322"
       transform="translate(-59.2,4.8)"><text
         transform="matrix(1,0,0,-1,189.29,27.48)"
         id="text324"><tspan
           style="font-size:8px;font-style:italic;font-variant:normal;writing-mode:lr-tb;fill:#000000;fill-opacity:1;fill-rule:nonzero;stroke:none;font-family:Times New Roman;-inkscape-font-specification:Times-Italic"
           x="0 4 8 12"
           y="0"
           sodipodi:role="line"
           id="tspan326">Sp_O</tspan></text>
</g><g
       id="g328" /><g
       id="g330" /><g
       id="g332" /><g
       id="g334" /><g
       id="g336" /><g
       id="g338" /><g
       id="g340" /><g
       id="g342" /><g
       id="g344" /><g
       id="g346"><text
         transform="matrix(1,0,0,-1,76.99,218.5)"
         id="text348"><tspan
           style="font-size:11px;font-variant:normal;font-weight:bold;writing-mode:lr-tb;fill:#000000;fill-opacity:1;fill-rule:nonzero;stroke:none;font-family:Times New Roman;-inkscape-font-specification:Times-Bold"
           x="0 6.7210002 12.221 18.337 24.452999 29.952999 33.011002 35.761002 42.481998 47.167999 52.667999 56.331001 59.389 62.446999"
           y="0"
           sodipodi:role="line"
           id="tspan350">Faunal Profile</tspan></text>
</g><g
       id="g352" /><g
       id="g354" /></g></svg>